<?xml version="1.0" standalone="no"?>
<!DOCTYPE svg PUBLIC "-//W3C//DTD SVG 20010904//EN"
 "http://www.w3.org/TR/2001/REC-SVG-20010904/DTD/svg10.dtd">
<svg version="1.0" xmlns="http://www.w3.org/2000/svg"
 width="2121.000000pt" height="2121.000000pt" viewBox="0 0 2121.000000 2121.000000"
 preserveAspectRatio="xMidYMid meet">
<metadata>
Created by potrace 1.14, written by Peter Selinger 2001-2017
</metadata>
<g transform="translate(0.000000,2121.000000) scale(0.100000,-0.100000)"
fill="#000000" stroke="none">
<path d="M10527 18104 c-1 -1 -99 -5 -217 -8 -118 -4 -231 -9 -250 -11 -19 -2
-69 -6 -110 -9 -41 -4 -91 -8 -110 -11 -19 -2 -62 -6 -95 -10 -33 -3 -71 -7
-85 -10 -14 -2 -47 -7 -75 -10 -297 -36 -767 -136 -1120 -240 -205 -61 -530
-173 -640 -221 -16 -7 -70 -29 -120 -49 -235 -96 -553 -251 -785 -383 -430
-245 -849 -538 -1195 -837 -38 -33 -83 -71 -99 -85 -192 -165 -553 -534 -737
-754 -13 -16 -29 -34 -34 -40 -68 -72 -344 -437 -450 -592 -390 -574 -697
-1196 -914 -1849 -59 -178 -141 -459 -155 -530 -3 -11 -11 -47 -20 -80 -8 -33
-18 -71 -20 -85 -3 -14 -15 -68 -26 -120 -21 -95 -73 -386 -85 -470 -3 -25
-10 -76 -15 -115 -16 -118 -19 -147 -26 -220 -3 -38 -8 -83 -9 -100 -4 -31
-15 -198 -21 -295 -4 -80 -5 -644 0 -715 2 -33 7 -106 10 -162 4 -56 9 -115
11 -131 2 -16 6 -69 10 -118 4 -49 9 -91 10 -94 2 -3 6 -33 10 -65 3 -33 8
-75 11 -93 3 -17 7 -49 10 -69 2 -20 7 -50 10 -67 3 -17 7 -42 9 -56 3 -22 9
-56 31 -177 16 -84 65 -316 79 -373 61 -243 75 -293 128 -460 90 -288 219
-633 317 -845 76 -166 222 -457 277 -554 36 -64 74 -130 84 -148 18 -33 55
-94 76 -128 7 -11 26 -42 43 -70 112 -182 262 -398 429 -615 217 -280 345
-424 641 -720 242 -242 301 -297 474 -441 16 -13 34 -29 40 -34 31 -28 173
-141 271 -214 61 -45 117 -87 125 -94 8 -7 58 -41 110 -76 52 -36 115 -79 140
-96 282 -193 794 -471 1130 -615 80 -34 159 -68 175 -75 331 -146 980 -337
1420 -419 17 -3 71 -13 120 -21 50 -9 101 -18 115 -20 14 -3 61 -9 105 -15 44
-6 91 -13 104 -15 14 -3 52 -7 85 -10 34 -3 72 -8 86 -10 14 -3 61 -8 105 -11
44 -3 96 -7 115 -9 260 -25 918 -25 1150 -1 19 2 69 7 110 10 126 12 172 16
255 27 44 6 94 13 110 15 56 7 146 21 185 29 14 3 41 7 60 10 30 4 131 23 210
39 14 3 50 11 80 17 30 6 143 33 250 61 107 27 203 51 212 53 28 6 249 74 296
91 23 9 48 17 55 18 6 2 19 6 27 9 8 3 53 19 100 35 99 35 162 59 207 78 17 8
34 14 37 14 6 0 247 102 336 142 174 78 513 253 639 330 34 21 65 38 67 38 9
0 223 137 384 245 540 362 1052 817 1485 1320 110 128 115 133 170 204 28 34
68 86 91 115 74 93 240 329 329 466 135 207 146 224 239 390 48 85 92 162 96
170 30 50 217 435 260 535 130 300 254 646 345 964 26 91 49 174 51 185 2 12
13 58 24 103 19 78 94 446 104 508 10 70 19 121 21 135 2 9 6 43 10 75 4 33 9
68 11 79 2 10 6 44 9 75 3 31 8 72 10 91 4 36 13 125 20 215 25 282 25 1001 1
1145 -3 14 -7 69 -10 122 -4 54 -8 103 -10 110 -3 7 -7 44 -10 82 -4 38 -8 71
-10 75 -2 3 -6 35 -10 71 -3 36 -8 75 -10 86 -5 25 -13 73 -21 129 -21 146
-86 441 -160 735 -29 113 -154 506 -188 590 -6 14 -11 30 -12 35 -4 14 -94
242 -115 290 -10 22 -29 67 -43 100 -97 232 -278 585 -431 839 -39 66 -78 131
-86 145 -18 31 -191 292 -203 306 -4 6 -47 64 -94 130 -75 104 -266 350 -282
365 -3 3 -28 32 -56 65 -27 33 -62 74 -76 90 -15 17 -51 57 -80 90 -60 68
-471 479 -539 540 -47 42 -177 155 -220 192 -14 11 -68 55 -120 97 -52 42
-102 82 -110 89 -8 7 -40 30 -70 52 -30 21 -57 42 -60 46 -4 5 -218 155 -274
192 -10 6 -36 24 -57 40 -21 15 -43 27 -49 27 -5 0 -10 3 -10 8 0 4 -8 12 -19
17 -27 14 -92 53 -123 73 -39 25 -242 144 -328 192 -69 38 -447 225 -530 262
-576 258 -1222 451 -1847 553 -18 3 -46 7 -61 10 -16 3 -46 7 -67 10 -22 2
-73 9 -115 14 -41 6 -100 13 -130 16 -30 4 -66 8 -80 10 -23 4 -131 13 -245
21 -146 10 -581 24 -588 18z"/>
</g>
</svg>
